<svg xmlns="http://www.w3.org/2000/svg" viewBox="0 0 640 480"><defs><style>.cls-1{font-size:53.63px;font-family:ItalianRevolution, Italian Revolution;letter-spacing:0.09em;}.cls-1,.cls-4{fill:#573188;}.cls-2{fill:#6fa648;}.cls-3{fill:#f1efba;}.cls-5{fill:#5c8b45;}.cls-6{fill:none;}.cls-6,.cls-7,.cls-8{stroke:#573188;stroke-miterlimit:10;}.cls-7{fill:#f0e758;}.cls-8{fill:#f6eb65;}</style></defs><g id="texto"><text class="cls-1" transform="translate(248.81 305.11)">Bamboo Ideas</text></g><g id="oreja-izq"><circle class="cls-2" cx="78.23" cy="191.23" r="39.5"/></g><g id="oreja-der"><circle class="cls-2" cx="205.5" cy="191.5" r="39.5"/></g><g id="oreja-int-izq"><circle class="cls-3" cx="104.79" cy="195.19" r="7.3"/><circle class="cls-3" cx="94.86" cy="170.64" r="7.3"/><circle class="cls-3" cx="51.67" cy="187.16" r="7.3"/><circle class="cls-3" cx="60.97" cy="211.68" r="7.3"/><circle class="cls-3" cx="87.97" cy="215.71" r="7.3"/><circle class="cls-3" cx="68.26" cy="166.75" r="7.3"/><circle class="cls-4" cx="78" cy="191" r="12"/></g><g id="oreja-int-der"><circle class="cls-3" cx="179.42" cy="195.71" r="7.3"/><circle class="cls-3" cx="189.35" cy="171.16" r="7.3"/><circle class="cls-3" cx="232.53" cy="187.68" r="7.3"/><circle class="cls-3" cx="223.23" cy="212.2" r="7.3"/><circle class="cls-3" cx="196.23" cy="216.23" r="7.3"/><circle class="cls-3" cx="215.95" cy="167.27" r="7.3"/><circle class="cls-4" cx="206" cy="192" r="12"/></g><g id="cuerpo"><path class="cls-3" d="M118.23,166.64,44.82,258.11S35.16,276.35,47,288.16s32.18,23.18,91.21,21.46,80.23-4.72,94.75-20.6,7.3-29.62,7.3-29.62l-74.78-92.76a36.4,36.4,0,0,0-23.72-9A35.48,35.48,0,0,0,118.23,166.64Z"/></g><g id="crespo"><path class="cls-5" d="M121.34,188.46a22.6,22.6,0,0,0,23.82,14.12l1.24-.15,1.22-.28c.4-.1.82-.15,1.22-.29l1.19-.4a16.19,16.19,0,0,0,2.26-.92c.37-.16.7-.39,1.06-.58a7.61,7.61,0,0,0,1-.64,18.36,18.36,0,0,0,3.59-3.23,19.46,19.46,0,0,0,2.58-4.11,18.08,18.08,0,0,0,1-12c-.09-.4-.25-.79-.37-1.18a8.14,8.14,0,0,0-.43-1.14,13,13,0,0,0-2.54-4,14.11,14.11,0,0,0-8.28-4.39,14.27,14.27,0,0,0-4.79.14,14.81,14.81,0,0,0-2.34.66l-1.06.47c-.32.2-.68.37-1,.59a11.1,11.1,0,0,0-4.83,7.7,11,11,0,0,0,.4,4.69,8.53,8.53,0,0,0,2.34,3.88,8.56,8.56,0,0,0,8.56,1.93,6.66,6.66,0,0,0,3.57-2.53,6.92,6.92,0,0,0,1.23-4.27,7.26,7.26,0,0,0-.51-2.21,5.06,5.06,0,0,0-1.22-1.78,5.46,5.46,0,0,0-4.06-1.47,4.45,4.45,0,0,0-3.68,2.12,4.3,4.3,0,0,0,0,4.29,3.49,3.49,0,0,0,3.95,1.52,2.93,2.93,0,0,0,2-3.74l.93-.37a4.12,4.12,0,0,1,.07,3.27A4.27,4.27,0,0,1,147,186.6a5.27,5.27,0,0,1-3.4.16,5.4,5.4,0,0,1-2.86-2,6.64,6.64,0,0,1-.47-6.72,6.79,6.79,0,0,1,2.35-2.67,7.89,7.89,0,0,1,3.29-1.22,8.28,8.28,0,0,1,6.62,2,8.41,8.41,0,0,1,2.17,2.84,10.89,10.89,0,0,1,.95,3.35,10.6,10.6,0,0,1-7.06,11.05,13,13,0,0,1-6.82.53,13.12,13.12,0,0,1-9.94-8.82,15.93,15.93,0,0,1-.78-6.72,16.21,16.21,0,0,1,6.73-11.5c.46-.34,1-.62,1.46-.92s1-.51,1.55-.76a22,22,0,0,1,3.19-1,20.31,20.31,0,0,1,6.69-.4,19.92,19.92,0,0,1,11.93,5.85,18.86,18.86,0,0,1,3.82,5.61,12,12,0,0,1,.63,1.55c.18.52.39,1,.54,1.57a23.62,23.62,0,0,1,.69,3.24,24.31,24.31,0,0,1-1.64,13.05,26.44,26.44,0,0,1-3.41,5.74,25.25,25.25,0,0,1-4.86,4.6,13,13,0,0,1-1.4.92c-.49.28-.95.61-1.45.85a23.89,23.89,0,0,1-3.05,1.33l-1.54.56c-.51.18-1,.28-1.58.42l-1.59.4-1.62.24a30.06,30.06,0,0,1-13-1.07,30.69,30.69,0,0,1-11.32-6.53,30.18,30.18,0,0,1-7.54-10.73Z"/></g><g id="boca-izq"><path class="cls-6" d="M141.16,254.82h0c0,28.9-27,30.62-27,30.62"/></g><g id="boca-der"><path class="cls-6" d="M141.61,254.82h0c0,28.9,27,30.62,27,30.62"/></g><g id="nariz"><path class="cls-4" d="M141.34,254.68l-11.92-11.17s-1.72-3.57,2.58-3.57h19.31s4.3,1.57,2.29,3.57S141.34,254.68,141.34,254.68Z"/></g><g id="mancha"><circle class="cls-2" cx="114.36" cy="225.45" r="11.66"/></g><g id="ojo-izq"><circle class="cls-7" cx="114.36" cy="225.45" r="6.83"/></g><g id="ojo-der"><circle class="cls-8" cx="168.49" cy="225.45" r="6.83"/></g></svg>